Coordinates
version=1
nRows=14
nColumns=36
inDegrees=yes

Units are S.I. units (second, meters, Newtons, ...)
If the header above contains a line with 'inDegrees', this indicates whether rotational values are in degrees (yes) or radians (no).

endheader
time	pelvis_tilt	pelvis_list	pelvis_rotation	pelvis_tx	pelvis_ty	pelvis_tz	hip_flexion_r	hip_adduction_r	hip_rotation_r	knee_angle_r	knee_angle_r_beta	ankle_angle_r	subtalar_angle_r	mtp_angle_r	hip_flexion_l	hip_adduction_l	hip_rotation_l	knee_angle_l	knee_angle_l_beta	ankle_angle_l	subtalar_angle_l	mtp_angle_l	lumbar_extension	lumbar_bending	lumbar_rotation	arm_flex_r	arm_add_r	arm_rot_r	elbow_flex_r	pro_sup_r	arm_flex_l	arm_add_l	arm_rot_l	elbow_flex_l	pro_sup_l
      9.75000000	     -9.50729021	     -0.34665524	     -1.14663776	     -0.26521262	      0.98789878	     -0.65290289	     31.70366372	     -8.52013682	    -11.03166072	     35.09406431	      0.61250697	     11.58340998	     -2.11505099	     -7.49999987	     32.52961354	     -6.67043551	     -5.36714365	     38.58188687	      0.67338096	     14.30278568	     -4.79178113	     -7.49999987	    -14.38999295	      0.55463563	     -3.62481181	     20.59760256	    -12.08227545	      2.12311082	     65.49282029	    107.76943397	     11.92261841	    -13.09612031	     -5.30078943	     72.47042512	    101.62403712
      9.76000000	     -9.30115618	     -0.32647887	     -1.11493505	     -0.26164496	      0.99297754	     -0.65195886	     30.37122084	     -8.27820839	    -11.17948326	     33.37412730	      0.58248841	     10.85585921	     -1.95654824	     -7.49999987	     31.17172648	     -6.58413397	     -5.54166672	     36.78349738	      0.64199314	     13.56721511	     -4.57695305	     -7.49999987	    -13.97588922	      0.49121595	     -3.67147487	     19.60742241	    -11.98090999	      2.13344914	     64.42741450	    107.74040592	     10.58575321	    -12.90083373	     -5.56013921	     71.67974026	    101.51819729
      9.77000000	     -9.09364965	     -0.33188040	     -1.07614930	     -0.25811039	      0.99778850	     -0.65102256	     29.03997005	     -7.98866458	    -11.26448026	     31.65608560	      0.55250292	     10.13907496	     -1.85302478	     -7.49999987	     29.84339511	     -6.51004001	     -5.66272240	     35.02637766	      0.61132562	     12.84559281	     -4.39976141	     -7.49999987	    -13.57417173	      0.46141718	     -3.75845520	     18.68220793	    -11.88894726	      2.21025553	     63.30851030	    107.71004150	      9.19812650	    -12.72220858	     -5.87706024	     70.98575832	    101.38245635
      9.78000000	     -9.37761997	     -0.34609340	     -1.02383312	     -0.25485758	      1.00134599	     -0.65008500	     28.38991306	     -7.73707873	    -11.45974299	     30.24584954	      0.52788966	      9.98902244	     -1.67746393	     -7.49999987	     29.20872885	     -6.49050545	     -5.88084110	     33.55696876	      0.58567959	     12.58965436	     -4.16307177	     -7.49999987	    -12.65572160	      0.45231441	     -3.74518688	     17.45981523	    -11.93028229	      2.21826766	     62.70912384	    107.68097707	      7.79637491	    -12.55484263	     -5.96480182	     70.45664385	    101.30904440
      9.79000000	     -8.73306779	     -0.37287641	     -1.01695633	     -0.25120567	      1.00644709	     -0.64904926	     26.48883212	     -7.35616307	    -11.37088194	     28.27935084	      0.49356778	      8.78344855	     -1.56061377	     -7.49999987	     27.34167444	     -6.42197435	     -5.90679239	     31.67480474	      0.55282963	     11.48651530	     -3.82711466	     -7.49999987	    -12.72105568	      0.42885797	     -3.78771737	     16.77512655	    -11.69877192	      2.08810774	     61.15791622	    107.60070358	      6.77724570	    -12.13326671	     -6.58053731	     69.19767665	    101.08137334
      9.80000000	     -8.65900834	     -0.33910075	     -0.99254694	     -0.24784233	      1.01021385	     -0.64817575	     25.39223094	     -7.09616717	    -11.26756723	     26.70581094	      0.46610433	      8.22893809	     -1.44772509	     -7.49999987	     26.24229132	     -6.32456126	     -6.08042365	     30.05253701	      0.52451572	     10.92538226	     -3.53513596	     -7.49999987	    -12.20421403	      0.37095318	     -3.80273761	     15.75709459	    -11.60477467	      2.02780804	     60.17476839	    107.54948626	      5.59039384	    -11.71908790	     -7.13806165	     68.38518424	    100.94393682
      9.81000000	     -8.32245118	     -0.28295311	     -1.05497060	     -0.24430083	      1.01412325	     -0.64728512	     24.03410833	     -6.87571168	    -11.31788673	     25.11767227	      0.43838608	      7.48973877	     -1.46621914	     -7.49999987	     24.83633470	     -6.25260209	     -6.43308575	     28.44249515	      0.49641519	     10.25608635	     -3.29701969	     -7.49999987	    -11.97963260	      0.28345842	     -3.79791050	     14.90460526	    -11.45204705	      1.98448035	     59.00849742	    107.48584949	      4.43981337	    -11.20067196	     -8.01825696	     67.43275930	    100.78330386
      9.82000000	     -8.15250745	     -0.25756092	     -1.09061822	     -0.24093964	      1.01747847	     -0.64638682	     22.89482309	     -6.61974151	    -11.26562977	     23.61703652	      0.41219505	      6.87615459	     -1.38311598	     -7.49999987	     23.66630208	     -6.19027466	     -6.65896882	     26.91108574	      0.46968705	      9.65513754	     -2.99364855	     -7.49999987	    -11.58405442	      0.23686530	     -3.79959629	     13.96013687	    -11.40860492	      2.04000244	     58.03815149	    107.43826097	      3.32563592	    -10.72501230	     -8.78922779	     66.48356740	    100.64965323
      9.83000000	     -8.16005321	     -0.25118056	     -1.05531872	     -0.23778423	      1.02027890	     -0.64557958	     21.98106247	     -6.36144838	    -11.09916180	     22.21249671	      0.38768120	      6.43919072	     -1.19506859	     -7.49999987	     22.75437379	     -6.10907222	     -6.76199779	     25.44599929	      0.44411647	      9.16282725	     -2.63629584	     -7.49999987	    -11.01449949	      0.25624657	     -3.80297097	     12.90289775	    -11.41335031	      2.04078119	     57.25906418	    107.39127126	      2.25704789	    -10.33555800	     -9.35295106	     65.60081581	    100.54546930
      9.84000000	     -7.95924628	     -0.21240848	     -1.09680724	     -0.23452379	      1.02318881	     -0.64469221	     20.87315485	     -6.14320233	    -11.06371074	     20.80613020	      0.36313548	      5.86379565	     -1.10844944	     -7.49999987	     21.59673843	     -6.01781536	     -6.92392604	     23.99829212	      0.41884921	      8.58407656	     -2.31498305	     -7.49999987	    -10.67187695	      0.19156301	     -3.77453839	     11.99026701	    -11.29382278	      1.93245745	     56.32118044	    107.31631279	      1.19954775	     -9.89872274	     -9.96593491	     64.60670319	    100.43010743
      9.85000000	     -7.64851958	     -0.14637691	     -1.11528993	     -0.23127519	      1.02599322	     -0.64393957	     19.69368392	     -5.99464688	    -11.10702440	     19.49960766	      0.34033236	      5.25791389	     -1.16730471	     -7.49999987	     20.35716555	     -5.90209644	     -7.21436907	     22.59329357	      0.39432736	      8.02288969	     -2.12945058	     -7.49999987	    -10.46620434	      0.11248557	     -3.82575330	     11.17375112	    -11.10507344	      1.76047136	     55.25160015	    107.22424678	      0.14743292	     -9.48815892	    -10.57621931	     63.70228259	    100.31066019
      9.86000000	     -7.63577733	     -0.06835529	     -1.16771601	     -0.22831644	      1.02814636	     -0.64315803	     18.91441974	     -5.84702516	    -10.93143665	     18.32650795	      0.31985790	      4.86643649	     -0.90230549	     -7.49999987	     19.48747829	     -5.77207282	     -7.33832835	     21.27944632	      0.37139640	      7.55994121	     -1.75505063	     -7.49999987	     -9.94699659	      0.02277051	     -3.79428206	     10.25066590	    -11.00436525	      1.59742560	     54.44588175	    107.16778269	     -0.89656041	     -9.10706467	    -11.00824719	     62.87067356	    100.19184828
      9.87000000	     -7.42617894	      0.00229382	     -1.25299946	     -0.22531280	      1.03033459	     -0.64240295	     17.97054145	     -5.72894190	    -10.91567445	     17.21860729	      0.30052139	      4.44312540	     -0.73176983	     -7.49999987	     18.41878371	     -5.66104572	     -7.60808169	     20.00021238	      0.34906956	      7.06508360	     -1.50281221	     -7.49999987	     -9.66146662	     -0.04111802	     -3.71537716	      9.36199581	    -10.87338077	      1.36303606	     53.54245886	    107.13016992	     -1.86432946	     -8.69948686	    -11.54388038	     61.94983356	    100.06869505
      9.88000000	     -7.32889875	      0.08125383	     -1.30503698	     -0.22247746	      1.03213414	     -0.64172569	     17.19255486	     -5.64298508	    -10.91405223	     16.20548723	      0.28283911	      4.07531372	     -0.57838021	     -7.49999987	     17.51145590	     -5.50054010	     -7.68759227	     18.76021596	      0.32742754	      6.50977482	     -1.46103384	     -7.49999987	     -9.27131058	     -0.11431412	     -3.84042969	      8.64334920	    -10.76072439	      1.44861083	     52.50721058	    107.39392879	     -3.01407679	     -8.34879886	    -12.13043828	     61.31037443	     99.56621087
